<svg xmlns="http://www.w3.org/2000/svg" fill="none" viewBox="0 0 24 32" height="22" width="22">
<path fill="#1A273A" d="M3.62016 28.7534C3.69358 30.2307 4.90404 31.3846 6.38594 31.3846H17.6135C19.0954 31.3846 20.3059 30.2307 20.3792 28.7534L21.9965 10.1538H2.00293L3.62016 28.7534ZM14.769 14.7692H16.6151V24.923H14.769V14.7692ZM11.0767 14.7692H12.9228V24.923H11.0767V14.7692ZM7.38434 14.7692H9.2305V24.923H7.38434V14.7692Z"></path>
<path fill="#1A273A" d="M16.6154 4.61538V2.76923C16.6154 1.24234 15.3732 0 13.8462 0H10.1538C8.62695 0 7.38462 1.24234 7.38462 2.76923V4.61538H0V8.30769H24V4.61538H16.6154ZM9.23077 4.61538V2.76923C9.23077 2.26025 9.64492 1.84615 10.1538 1.84615H13.8462C14.3552 1.84615 14.7692 2.26025 14.7692 2.76923V4.61538H9.23077Z"></path>
</svg>
