<svg width="21" height="23" viewBox="0 0 21 23" fill="none" xmlns="http://www.w3.org/2000/svg">
<path d="M19.594 17.7291H17.3253C16.9565 16.3482 15.8285 15.3333 14.4825 15.3333C13.1365 15.3333 12.0094 16.3482 11.6397 17.7291H0.851899C0.381644 17.7291 0 18.1585 0 18.6875C0 19.2165 0.381644 19.6458 0.851899 19.6458H11.6397C12.0085 21.0268 13.1365 22.0416 14.4825 22.0416C15.8285 22.0416 16.9556 21.0268 17.3253 19.6458H19.594C20.0651 19.6458 20.4459 19.2165 20.4459 18.6875C20.4459 18.1585 20.0651 17.7291 19.594 17.7291ZM14.4825 20.125C13.778 20.125 13.2047 19.4801 13.2047 18.6875C13.2047 17.8949 13.778 17.25 14.4825 17.25C15.1871 17.25 15.7604 17.8949 15.7604 18.6875C15.7604 19.4801 15.187 20.125 14.4825 20.125Z" fill="#0E1822"/>
<path d="M19.594 2.39582H17.3253C16.9556 1.01487 15.8285 0 14.4825 0C13.1365 0 12.0094 1.01487 11.6397 2.39582H0.851899C0.381644 2.39582 0 2.82514 0 3.35414C0 3.88314 0.381644 4.31245 0.851899 4.31245H11.6397C12.0094 5.69344 13.1365 6.70832 14.4825 6.70832C15.8286 6.70832 16.9556 5.69344 17.3253 4.3125H19.594C20.0651 4.3125 20.4459 3.88318 20.4459 3.35418C20.4459 2.82518 20.0651 2.39582 19.594 2.39582ZM14.4825 4.79164C13.778 4.79164 13.2047 4.14669 13.2047 3.35414C13.2047 2.56158 13.778 1.91664 14.4825 1.91664C15.1871 1.91664 15.7604 2.56158 15.7604 3.35414C15.7604 4.14669 15.187 4.79164 14.4825 4.79164Z" fill="#0E1822"/>
<path d="M19.594 10.0625H8.80624C8.43649 8.68156 7.30941 7.66669 5.96342 7.66669C4.61742 7.66669 3.4903 8.68156 3.1206 10.0625H0.851899C0.381644 10.0625 0 10.4918 0 11.0208C0 11.5498 0.381644 11.9791 0.851899 11.9791H3.12056C3.4903 13.3601 4.61738 14.375 5.96338 14.375C7.30937 14.375 8.43649 13.3601 8.8062 11.9791H19.594C20.0651 11.9791 20.4459 11.5498 20.4459 11.0208C20.4459 10.4918 20.0651 10.0625 19.594 10.0625ZM5.96338 12.4583C5.25883 12.4583 4.68551 11.8134 4.68551 11.0208C4.68551 10.2283 5.25883 9.58332 5.96338 9.58332C6.66792 9.58332 7.24124 10.2283 7.24124 11.0208C7.24124 11.8134 6.66792 12.4583 5.96338 12.4583Z" fill="#0E1822"/>
</svg>
